<mxfile host="app.diagrams.net" agent="Mozilla/5.0 (X11; Linux x86_64) AppleWebKit/537.36 (KHTML, like Gecko) Chrome/130.0.0.0 Safari/537.36" version="26.0.6">
  <diagram name="PÃ¡gina-1" id="pkBjKT7XHbujupzdPOL3">
    <mxGraphModel>
      <root>
        <mxCell id="0" />
        <mxCell id="1" parent="0" />
        <mxCell id="2" value="Player" style="swimlane;fontStyle=1;align=center;verticalAlign=top;childLayout=stackLayout;horizontal=1;startSize=29.333333333333332;horizontalStack=0;resizeParent=1;resizeParentMax=0;resizeLast=0;collapsible=0;marginBottom=0;" vertex="1" parent="1">
          <mxGeometry x="187" y="8" width="323" height="360" as="geometry" />
        </mxCell>
        <mxCell id="3" value="- id: int" style="text;strokeColor=none;fillColor=none;align=left;verticalAlign=top;spacingLeft=4;spacingRight=4;overflow=hidden;rotatable=0;points=[[0,0.5],[1,0.5]];portConstraint=eastwest;" vertex="1" parent="2">
          <mxGeometry y="29" width="323" height="29" as="geometry" />
        </mxCell>
        <mxCell id="4" value="- name: string" style="text;strokeColor=none;fillColor=none;align=left;verticalAlign=top;spacingLeft=4;spacingRight=4;overflow=hidden;rotatable=0;points=[[0,0.5],[1,0.5]];portConstraint=eastwest;" vertex="1" parent="2">
          <mxGeometry y="59" width="323" height="29" as="geometry" />
        </mxCell>
        <mxCell id="5" value="- level: int" style="text;strokeColor=none;fillColor=none;align=left;verticalAlign=top;spacingLeft=4;spacingRight=4;overflow=hidden;rotatable=0;points=[[0,0.5],[1,0.5]];portConstraint=eastwest;" vertex="1" parent="2">
          <mxGeometry y="88" width="323" height="29" as="geometry" />
        </mxCell>
        <mxCell id="6" value="- health: float" style="text;strokeColor=none;fillColor=none;align=left;verticalAlign=top;spacingLeft=4;spacingRight=4;overflow=hidden;rotatable=0;points=[[0,0.5],[1,0.5]];portConstraint=eastwest;" vertex="1" parent="2">
          <mxGeometry y="117" width="323" height="29" as="geometry" />
        </mxCell>
        <mxCell id="7" value="- attack: float" style="text;strokeColor=none;fillColor=none;align=left;verticalAlign=top;spacingLeft=4;spacingRight=4;overflow=hidden;rotatable=0;points=[[0,0.5],[1,0.5]];portConstraint=eastwest;" vertex="1" parent="2">
          <mxGeometry y="147" width="323" height="29" as="geometry" />
        </mxCell>
        <mxCell id="8" value="- defense: float" style="text;strokeColor=none;fillColor=none;align=left;verticalAlign=top;spacingLeft=4;spacingRight=4;overflow=hidden;rotatable=0;points=[[0,0.5],[1,0.5]];portConstraint=eastwest;" vertex="1" parent="2">
          <mxGeometry y="176" width="323" height="29" as="geometry" />
        </mxCell>
        <mxCell id="9" value="----------------------------------" style="text;strokeColor=none;fillColor=none;align=left;verticalAlign=top;spacingLeft=4;spacingRight=4;overflow=hidden;rotatable=0;points=[[0,0.5],[1,0.5]];portConstraint=eastwest;" vertex="1" parent="2">
          <mxGeometry y="205" width="323" height="29" as="geometry" />
        </mxCell>
        <mxCell id="10" style="line;strokeWidth=1;fillColor=none;align=left;verticalAlign=middle;spacingTop=-1;spacingLeft=3;spacingRight=3;rotatable=0;labelPosition=right;points=[];portConstraint=eastwest;strokeColor=inherit;" vertex="1" parent="2">
          <mxGeometry y="235" width="323" height="8" as="geometry" />
        </mxCell>
        <mxCell id="11" value="+ Player(id: int, name: string, level: int)" style="text;strokeColor=none;fillColor=none;align=left;verticalAlign=top;spacingLeft=4;spacingRight=4;overflow=hidden;rotatable=0;points=[[0,0.5],[1,0.5]];portConstraint=eastwest;" vertex="1" parent="2">
          <mxGeometry y="243" width="323" height="29" as="geometry" />
        </mxCell>
        <mxCell id="12" value="+ increaseLevel() : : void" style="text;strokeColor=none;fillColor=none;align=left;verticalAlign=top;spacingLeft=4;spacingRight=4;overflow=hidden;rotatable=0;points=[[0,0.5],[1,0.5]];portConstraint=eastwest;" vertex="1" parent="2">
          <mxGeometry y="272" width="323" height="29" as="geometry" />
        </mxCell>
        <mxCell id="13" value="+ attackEnemy(enemy: Enemy) : : void" style="text;strokeColor=none;fillColor=none;align=left;verticalAlign=top;spacingLeft=4;spacingRight=4;overflow=hidden;rotatable=0;points=[[0,0.5],[1,0.5]];portConstraint=eastwest;" vertex="1" parent="2">
          <mxGeometry y="301" width="323" height="29" as="geometry" />
        </mxCell>
        <mxCell id="14" value="+ defend() : : void" style="text;strokeColor=none;fillColor=none;align=left;verticalAlign=top;spacingLeft=4;spacingRight=4;overflow=hidden;rotatable=0;points=[[0,0.5],[1,0.5]];portConstraint=eastwest;" vertex="1" parent="2">
          <mxGeometry y="331" width="323" height="29" as="geometry" />
        </mxCell>
        <mxCell id="15" value="Enemy" style="swimlane;fontStyle=1;align=center;verticalAlign=top;childLayout=stackLayout;horizontal=1;startSize=30.4;horizontalStack=0;resizeParent=1;resizeParentMax=0;resizeLast=0;collapsible=0;marginBottom=0;" vertex="1" parent="1">
          <mxGeometry x="8" y="439" width="312" height="312" as="geometry" />
        </mxCell>
        <mxCell id="16" value="- id: int" style="text;strokeColor=none;fillColor=none;align=left;verticalAlign=top;spacingLeft=4;spacingRight=4;overflow=hidden;rotatable=0;points=[[0,0.5],[1,0.5]];portConstraint=eastwest;" vertex="1" parent="15">
          <mxGeometry y="30" width="312" height="30" as="geometry" />
        </mxCell>
        <mxCell id="17" value="- name: string" style="text;strokeColor=none;fillColor=none;align=left;verticalAlign=top;spacingLeft=4;spacingRight=4;overflow=hidden;rotatable=0;points=[[0,0.5],[1,0.5]];portConstraint=eastwest;" vertex="1" parent="15">
          <mxGeometry y="61" width="312" height="30" as="geometry" />
        </mxCell>
        <mxCell id="18" value="- health: float" style="text;strokeColor=none;fillColor=none;align=left;verticalAlign=top;spacingLeft=4;spacingRight=4;overflow=hidden;rotatable=0;points=[[0,0.5],[1,0.5]];portConstraint=eastwest;" vertex="1" parent="15">
          <mxGeometry y="91" width="312" height="30" as="geometry" />
        </mxCell>
        <mxCell id="19" value="- attack: float" style="text;strokeColor=none;fillColor=none;align=left;verticalAlign=top;spacingLeft=4;spacingRight=4;overflow=hidden;rotatable=0;points=[[0,0.5],[1,0.5]];portConstraint=eastwest;" vertex="1" parent="15">
          <mxGeometry y="122" width="312" height="30" as="geometry" />
        </mxCell>
        <mxCell id="20" value="- defense: float" style="text;strokeColor=none;fillColor=none;align=left;verticalAlign=top;spacingLeft=4;spacingRight=4;overflow=hidden;rotatable=0;points=[[0,0.5],[1,0.5]];portConstraint=eastwest;" vertex="1" parent="15">
          <mxGeometry y="152" width="312" height="30" as="geometry" />
        </mxCell>
        <mxCell id="21" value="-----------------------------------" style="text;strokeColor=none;fillColor=none;align=left;verticalAlign=top;spacingLeft=4;spacingRight=4;overflow=hidden;rotatable=0;points=[[0,0.5],[1,0.5]];portConstraint=eastwest;" vertex="1" parent="15">
          <mxGeometry y="182" width="312" height="30" as="geometry" />
        </mxCell>
        <mxCell id="22" style="line;strokeWidth=1;fillColor=none;align=left;verticalAlign=middle;spacingTop=-1;spacingLeft=3;spacingRight=3;rotatable=0;labelPosition=right;points=[];portConstraint=eastwest;strokeColor=inherit;" vertex="1" parent="15">
          <mxGeometry y="213" width="312" height="8" as="geometry" />
        </mxCell>
        <mxCell id="23" value="+ Enemy(id: int, name: string)" style="text;strokeColor=none;fillColor=none;align=left;verticalAlign=top;spacingLeft=4;spacingRight=4;overflow=hidden;rotatable=0;points=[[0,0.5],[1,0.5]];portConstraint=eastwest;" vertex="1" parent="15">
          <mxGeometry y="221" width="312" height="30" as="geometry" />
        </mxCell>
        <mxCell id="24" value="+ attackPlayer(player: Player) : : void" style="text;strokeColor=none;fillColor=none;align=left;verticalAlign=top;spacingLeft=4;spacingRight=4;overflow=hidden;rotatable=0;points=[[0,0.5],[1,0.5]];portConstraint=eastwest;" vertex="1" parent="15">
          <mxGeometry y="251" width="312" height="30" as="geometry" />
        </mxCell>
        <mxCell id="25" value="+ defend() : : void" style="text;strokeColor=none;fillColor=none;align=left;verticalAlign=top;spacingLeft=4;spacingRight=4;overflow=hidden;rotatable=0;points=[[0,0.5],[1,0.5]];portConstraint=eastwest;" vertex="1" parent="15">
          <mxGeometry y="282" width="312" height="30" as="geometry" />
        </mxCell>
        <mxCell id="26" value="Item" style="swimlane;fontStyle=1;align=center;verticalAlign=top;childLayout=stackLayout;horizontal=1;startSize=33.142857142857146;horizontalStack=0;resizeParent=1;resizeParentMax=0;resizeLast=0;collapsible=0;marginBottom=0;" vertex="1" parent="1">
          <mxGeometry x="370" y="475" width="327" height="240" as="geometry" />
        </mxCell>
        <mxCell id="27" value="- id: int" style="text;strokeColor=none;fillColor=none;align=left;verticalAlign=top;spacingLeft=4;spacingRight=4;overflow=hidden;rotatable=0;points=[[0,0.5],[1,0.5]];portConstraint=eastwest;" vertex="1" parent="26">
          <mxGeometry y="33" width="327" height="33" as="geometry" />
        </mxCell>
        <mxCell id="28" value="- name: string" style="text;strokeColor=none;fillColor=none;align=left;verticalAlign=top;spacingLeft=4;spacingRight=4;overflow=hidden;rotatable=0;points=[[0,0.5],[1,0.5]];portConstraint=eastwest;" vertex="1" parent="26">
          <mxGeometry y="66" width="327" height="33" as="geometry" />
        </mxCell>
        <mxCell id="29" value="- effect: string" style="text;strokeColor=none;fillColor=none;align=left;verticalAlign=top;spacingLeft=4;spacingRight=4;overflow=hidden;rotatable=0;points=[[0,0.5],[1,0.5]];portConstraint=eastwest;" vertex="1" parent="26">
          <mxGeometry y="99" width="327" height="33" as="geometry" />
        </mxCell>
        <mxCell id="30" value="-----------------------------------" style="text;strokeColor=none;fillColor=none;align=left;verticalAlign=top;spacingLeft=4;spacingRight=4;overflow=hidden;rotatable=0;points=[[0,0.5],[1,0.5]];portConstraint=eastwest;" vertex="1" parent="26">
          <mxGeometry y="133" width="327" height="33" as="geometry" />
        </mxCell>
        <mxCell id="31" style="line;strokeWidth=1;fillColor=none;align=left;verticalAlign=middle;spacingTop=-1;spacingLeft=3;spacingRight=3;rotatable=0;labelPosition=right;points=[];portConstraint=eastwest;strokeColor=inherit;" vertex="1" parent="26">
          <mxGeometry y="166" width="327" height="8" as="geometry" />
        </mxCell>
        <mxCell id="32" value="+ Item(id: int, name: string, effect: string)" style="text;strokeColor=none;fillColor=none;align=left;verticalAlign=top;spacingLeft=4;spacingRight=4;overflow=hidden;rotatable=0;points=[[0,0.5],[1,0.5]];portConstraint=eastwest;" vertex="1" parent="26">
          <mxGeometry y="174" width="327" height="33" as="geometry" />
        </mxCell>
        <mxCell id="33" value="+ applyEffect(target: Entity) : : void" style="text;strokeColor=none;fillColor=none;align=left;verticalAlign=top;spacingLeft=4;spacingRight=4;overflow=hidden;rotatable=0;points=[[0,0.5],[1,0.5]];portConstraint=eastwest;" vertex="1" parent="26">
          <mxGeometry y="207" width="327" height="33" as="geometry" />
        </mxCell>
        <mxCell id="34" value="" style="curved=1;startArrow=block;startSize=16;startFill=0;endArrow=none;exitX=0.02;exitY=1;entryX=0.5;entryY=0;" edge="1" parent="1" source="2" target="15">
          <mxGeometry relative="1" as="geometry">
            <Array as="points">
              <mxPoint x="164" y="404" />
            </Array>
          </mxGeometry>
        </mxCell>
        <mxCell id="35" value="has" style="curved=1;startArrow=diamondThin;startSize=14;startFill=1;endArrow=none;exitX=0.98;exitY=1;entryX=0.5;entryY=0;" edge="1" parent="1" source="2" target="26">
          <mxGeometry relative="1" as="geometry">
            <Array as="points">
              <mxPoint x="534" y="404" />
            </Array>
          </mxGeometry>
        </mxCell>
      </root>
    </mxGraphModel>
  </diagram>
</mxfile>
